<?xml version="1.0" encoding="utf-8"?>
<!-- Generator: Adobe Illustrator 27.5.0, SVG Export Plug-In . SVG Version: 6.00 Build 0)  -->
<svg version="1.1" id="BACKGROUND2" xmlns="http://www.w3.org/2000/svg" xmlns:xlink="http://www.w3.org/1999/xlink" x="0px"
	 y="0px" viewBox="0 0 750 500" style="enable-background:new 0 0 750 500;" xml:space="preserve">
<g>
	<defs>
		<rect id="SVGID_1_" width="750" height="500"/>
	</defs>
	<clipPath id="SVGID_00000119837356655936127440000003005731735904928652_">
		<use xlink:href="#SVGID_1_"  style="overflow:visible;"/>
	</clipPath>
	
		<rect x="-6.798" style="clip-path:url(#SVGID_00000119837356655936127440000003005731735904928652_);fill:#F8C772;" width="756.798" height="500"/>
	<path style="clip-path:url(#SVGID_00000119837356655936127440000003005731735904928652_);fill:#CEDCDB;" d="M207.418,319.073
		C114,385,114.135,511.334,102.952,564.79l505.402,55.183c-4.948-24.601-6.129-49.453-3.921-73.31
		c6.62-71.607,74.114-81.054,128.074-122.358c59.482-45.52,85.033-97.189,34.513-164.414
		c-44.217-58.828-132.849-118.034-66.94-181.691c16.617-16.046,39.763-21.814,62.677-29.644
		c11.427-3.908,42.585-9.233,63.143-16.151L380.389-128.598c-79.138,22.073-127.453,108.076-87.045,178.48
		c36.309,63.261,177.662,128.832,162.004,200.624C435.77,340.262,270.132,274.815,207.418,319.073z"/>
	<path style="clip-path:url(#SVGID_00000119837356655936127440000003005731735904928652_);fill:#FAF5F3;" d="M-6.798,0v495.871
		c30.118-9.477,62.157-31.527,69.186-61.023c4.285-17.986-5.922-35.232-8.177-52.295c-2.746-20.803,2.775-47.639,23.793-59.994
		c15.658-9.209,37.781-6.244,55.452-10.389c38.763-9.102,77.159-29.451,66.222-68.53c-5.922-21.155-18.113-40.936-18.285-63.176
		c-0.26-32.58,19.086-57.848,50.117-73.977c43.774-22.753,97.169-7.46,144.354-21.18C407.552,76.098,473.514,38.172,476.246,0
		H-6.798z"/>
	<g style="clip-path:url(#SVGID_00000119837356655936127440000003005731735904928652_);">
		<path style="fill:#EFA174;" d="M-86.432,348.952c1.007,7.082,3.59,14.388,6.922,21.271c7.808,26.542,26.129,46.087,50.099,56.353
			c33.908,14.52,69.564,8.554,102.927-4.327c34.944-13.487,69.434-34.984,107.277-35.822c30.592-0.677,60.132,10.867,90.685,10.682
			c30.324-0.189,58.713-17.479,74.955-45.633c8.239-14.288,12.211-31.043,16.177-47.19c1.944-7.91,3.798-16.501,6.392-24.726
			c1.077-0.324,2.142-0.679,3.166-1.104c18.645-7.737,36.892-16.845,51.07-32.622c7.873-8.773,19.896-25.552,11.636-38.098
			c-6.462-9.831-21.697-9.169-32.239-6.648c-39.232-0.275-78.467-1-117.699-1.168c-44.695-0.195-89.39,0.15-133.84,5.791
			c-22.877,2.907-45.637,6.834-68.363,10.854c-19.752,3.49-39.944,8.767-59.928,9.986c-26.477,1.626-53.008-1.525-79.409,2.333
			c-9.292,1.355-20.049,3.589-27.209,10.751c-6.405,6.421-7.001,18.724-7.613,27.48C-93.319,294.19-90.231,322.206-86.432,348.952z"
			/>
	</g>
	<path style="clip-path:url(#SVGID_00000119837356655936127440000003005731735904928652_);fill:#769194;" d="M760.001,507.999
		V143.915c-11.939,17.401-22.99,45.23-33.419,57.951c-25.047,30.549-57.859,47.265-94.716,55.257
		c-73.464,15.942-130.041,70.301-152.876,147.615c-9.869,33.422-15.021,69.689-25.758,103.261H760.001z"/>
	<path style="clip-path:url(#SVGID_00000119837356655936127440000003005731735904928652_);fill:#FAF5F3;" d="M450.391,532.065
		c1.555-7.225-9.464-13.594-14.278-17.709c-10.477-8.952-17.859-24.881-7.543-38.313c14.151-18.442,57.04-15.18,76.814-14.51
		c22.876,0.779,45.848,4.713,69.349,2.343c26.838-2.705,57.209-12.227,73.373-32.384c16.892-21.074,3.869-42.257-6.363-59.45
		c-10.627-17.855-26.253-43.838-8.348-65.487c23.183-28.004,80.573-22.793,109.585-17.206c24.369,4.702,50.412,14.554,59.678,33.564
		c0.5,1.023,2.521,0.066,2.102-0.958c-9.333-22.658-41.017-32.241-68.903-37.108c-28.267-4.93-61.923-5.011-90.478,8.739
		c-55.284,26.654-2.059,78.928,5.389,106.336c9.604,35.374-37.315,55.74-75.45,60.476c-23.227,2.896-46.839-1.457-69.339-2.365
		c-21.838-0.895-48.161-1.801-69.673,7.964c-19.309,8.767-18.723,26.579-13.699,39.148c4.025,10.096,17.008,15.108,22.634,24.274
		c8.561,13.95-31.093,19.043-39.466,18.863c-11.889-0.256-23.125-2.769-35.008-3.192c-3.248-0.111-3.871,3.906-0.685,4.05
		c18.451,0.865,36.107,5.032,55.366,1.117C435.756,548.162,448.519,540.79,450.391,532.065z"/>
	<g style="clip-path:url(#SVGID_00000119837356655936127440000003005731735904928652_);">
		<path style="fill:#FFFFFF;" d="M521.586,27.912c-9.803,1.808-19.127,7.185-28.644,10.138c-0.286,0.087-0.137,0.578,0.15,0.5
			c9.637-2.663,19.408-6.323,28.65-10.126C522.027,28.307,521.884,27.856,521.586,27.912z"/>
		<path style="fill:#FFFFFF;" d="M542.994,14.319c-6.484-5.235-12.873,0.605-18.598,3.997c-7.554,4.477-16.484,0.324-22.093,8.427
			c-0.204,0.296,0.233,0.589,0.458,0.316c5.584-6.809,13.254-3.989,20.572-6.881c6.431-2.542,11.693-9.731,18.897-4.76
			C542.945,15.912,543.657,14.857,542.994,14.319z"/>
		<path style="fill:#FFFFFF;" d="M563.152,16.716c-3.111,1.203-5.667,2.6-9.064,3.126c-3.632,0.56-7.34,0.61-10.996,0.91
			c-4.302,0.356-9.985,1.017-11.649,5.695c-0.209,0.581,0.655,0.886,0.893,0.324c2.443-5.77,11.793-4.99,16.931-5.313
			c4.135-0.261,11.661-0.33,14.317-4.228C563.785,16.937,563.47,16.594,563.152,16.716z"/>
		<path style="fill:#FFFFFF;" d="M535.685,2.43c-3.651,1.595-6.986,2.939-10.919,3.811c-3.411,0.76-6.755,1.585-9.816,3.333
			c-0.455,0.262-0.122,1.012,0.343,0.754c3.845-2.136,8.16-2.804,12.401-3.736c2.895-0.636,6.346-1.401,8.413-3.656
			C536.35,2.673,535.971,2.308,535.685,2.43z"/>
		<path style="fill:#FFFFFF;" d="M575.1-2.908c-5.127,1.369-10.33,1.564-15.574,2.165c-4.264,0.487-8.747,1.497-11.526,5.013
			c-0.369,0.469,0.389,0.991,0.763,0.527c6.013-7.507,18.631-3.439,26.639-6.722C575.94-2.146,575.673-3.062,575.1-2.908z"/>
		<path style="fill:#FFFFFF;" d="M533.498,40.748c-6.359-6.042-17.872-2.059-21.231,5.219c-0.226,0.493,0.562,0.771,0.79,0.286
			c1.779-3.788,5.063-6.059,9.077-7.011c4.043-0.961,7.425,0.391,11.041,1.967C533.432,41.321,533.709,40.949,533.498,40.748z"/>
		<path style="fill:#FFFFFF;" d="M577.268,30.756c-3.365,1.006-5.869,1.97-9.504,1.73c-3.188-0.212-6.334-0.947-9.506-1.331
			c-6.064-0.735-11.005,0.978-14.081,6.448c-0.186,0.33,0.28,0.671,0.491,0.339c4.299-6.723,10.821-6.146,17.792-4.984
			c4.393,0.731,11.621,2.241,15.106-1.554C577.777,31.173,577.669,30.636,577.268,30.756z"/>
		<path style="fill:#FFFFFF;" d="M597.653,14.859c-3.275,0.055-6.674,1.249-9.842,2.018c-3.887,0.946-7.768,1.904-11.696,2.681
			c-0.646,0.129-0.477,1.135,0.172,1.011c3.929-0.74,7.821-1.659,11.713-2.57c3.223-0.755,6.681-1.164,9.807-2.232
			C598.249,15.619,598.121,14.851,597.653,14.859z"/>
		<path style="fill:#FFFFFF;" d="M579.624,7.981c-5.857-0.986-12.426,1.357-18.163,2.374c-0.624,0.11-0.461,1.074,0.163,0.969
			c2.813-0.477,5.607-1.066,8.417-1.57c3.205-0.574,6.396-0.582,9.613-0.94C580.156,8.76,580.068,8.056,579.624,7.981z"/>
		<path style="fill:#FFFFFF;" d="M570.078-18.284c-13.276,3.275-32.186-1.5-40.408,12.318c-0.34,0.57,0.51,1.169,0.854,0.591
			c8.665-14.501,26.78-6.786,39.896-11.791C571.044-17.406,570.727-18.445,570.078-18.284z"/>
		<path style="fill:#FFFFFF;" d="M542.032-25.618c-5.189-0.527-11.408,1.521-14.121,6.167c-0.279,0.479,0.412,0.974,0.714,0.498
			c3.151-5.003,8.324-4.713,13.446-5.633C542.654-24.693,542.621-25.558,542.032-25.618z"/>
		<path style="fill:#FFFFFF;" d="M526.961-9.773c-3.771,0.742-7.471,2.053-11.15,3.148c-0.379,0.111-0.29,0.721,0.104,0.615
			c3.732-1.008,7.594-1.839,11.219-3.197C527.454-9.326,527.288-9.838,526.961-9.773z"/>
		<path style="fill:#FFFFFF;" d="M596.024-12.101c-4.616,0.067-9.414-0.007-14.008,0.554c-0.648,0.081-0.477,1.072,0.167,0.998
			c4.551-0.529,9.402,0.384,13.877-0.632C596.547-11.292,596.576-12.106,596.024-12.101z"/>
		<path style="fill:#FFFFFF;" d="M611.326,3.671c-1.842-0.495-3.971-0.165-5.848,0.027c-2.272,0.236-4.518,0.704-6.712,1.317
			c-0.743,0.206-0.553,1.396,0.201,1.191c1.981-0.532,3.982-0.917,6.018-1.177c2.069-0.265,4.225-0.014,6.257-0.415
			C611.693,4.528,611.828,3.804,611.326,3.671z"/>
		<path style="fill:#FFFFFF;" d="M613.313-3.396c-3.335-1.951-8.896-1.578-12.613-1.258c-4.887,0.421-9.473,2.48-12.616,6.281
			c-0.31,0.375,0.299,0.939,0.635,0.581c3.55-3.796,7.951-5.487,13.067-5.896c3.843-0.307,7.674,1.214,11.39,0.911
			C613.47-2.803,613.566-3.25,613.313-3.396z"/>
	</g>
	<g style="clip-path:url(#SVGID_00000119837356655936127440000003005731735904928652_);">
		<path style="fill:#FFFFFF;" d="M-8.672,326.219c-11.263,5.004-20.92,14.159-31.51,20.458c-0.318,0.188,0.003,0.734,0.326,0.558
			c10.816-5.982,21.506-13.204,31.521-20.444C-8.027,326.567-8.329,326.066-8.672,326.219z"/>
		<path style="fill:#FFFFFF;" d="M13.141,303.697c-9.307-4.421-15.301,4.444-21.204,10.175c-7.788,7.561-19.724,5.148-24.126,16.508
			c-0.16,0.416,0.45,0.643,0.641,0.249c4.748-9.798,14.783-8.621,22.746-14.212c6.996-4.913,11.248-15.074,21.342-11.178
			C13.543,305.627,14.094,304.152,13.141,303.697z"/>
		<path style="fill:#FFFFFF;" d="M38.066,300.759c-3.393,2.344-6.061,4.763-9.995,6.375c-4.204,1.724-8.648,2.853-12.956,4.268
			c-5.068,1.671-11.711,4.105-12.361,10.209c-0.082,0.761,1.044,0.877,1.169,0.133c1.27-7.643,12.736-9.404,18.819-11.275
			c4.894-1.508,13.924-3.764,15.992-9.216C38.892,300.841,38.413,300.521,38.066,300.759z"/>
		<path style="fill:#FFFFFF;" d="M0.922,291.515c-3.929,2.972-7.551,5.551-12.027,7.733c-3.881,1.899-7.662,3.858-10.839,6.84
			c-0.471,0.447,0.146,1.252,0.63,0.808c4.006-3.678,9.002-5.728,13.831-8.071c3.296-1.6,7.224-3.517,9.058-6.823
			C1.79,291.614,1.229,291.284,0.922,291.515z"/>
		<path style="fill:#FFFFFF;" d="M46.764,273.719c-5.769,3.126-11.967,4.862-18.098,7.099c-4.984,1.817-10.084,4.325-12.409,9.353
			c-0.309,0.67,0.753,1.081,1.068,0.415c5.062-10.76,21.405-9.515,30.085-15.771C47.994,274.392,47.408,273.367,46.764,273.719z"/>
		<path style="fill:#FFFFFF;" d="M9.356,338.212c-9.39-5.429-22.08,2.685-24.018,12.403c-0.13,0.658,0.898,0.766,1.031,0.115
			c1.047-5.066,4.337-8.745,8.889-11.051c4.583-2.321,9.039-1.673,13.842-0.823C9.44,338.919,9.667,338.393,9.356,338.212z"/>
		<path style="fill:#FFFFFF;" d="M59.09,313.563c-3.756,2.181-6.488,4.061-10.926,4.823c-3.895,0.666-7.889,0.69-11.813,1.145
			c-7.503,0.867-12.948,4.353-15.066,11.818c-0.128,0.449,0.529,0.725,0.688,0.265c3.227-9.323,11.236-10.512,19.951-11.128
			c5.492-0.389,14.618-0.661,17.712-6.23C59.822,313.917,59.537,313.303,59.09,313.563z"/>
		<path style="fill:#FFFFFF;" d="M79.007,288.566c-3.921,1.011-7.662,3.427-11.249,5.267c-4.398,2.262-8.788,4.532-13.286,6.602
			c-0.74,0.342-0.246,1.501,0.499,1.166c4.509-2.024,8.923-4.253,13.339-6.472c3.655-1.839,7.695-3.328,11.145-5.515
			C79.942,289.307,79.566,288.42,79.007,288.566z"/>
		<path style="fill:#FFFFFF;" d="M55.347,285.502c-7.326,0.505-14.546,5.22-21.149,8.099c-0.719,0.312-0.244,1.423,0.476,1.116
			c3.243-1.385,6.433-2.899,9.665-4.316c3.688-1.615,7.522-2.547,11.286-3.907C56.211,286.285,55.902,285.464,55.347,285.502z"/>
		<path style="fill:#FFFFFF;" d="M36.288,256.682c-15.016,7.77-39.127,7.49-45.022,26.476c-0.244,0.783,0.951,1.258,1.198,0.463
			c6.229-19.935,30.235-15.889,44.558-25.692C37.703,257.459,37.021,256.301,36.288,256.682z"/>
		<path style="fill:#FFFFFF;" d="M0.455,255.964c-6.392,0.864-13.276,5.122-15.196,11.491c-0.198,0.655,0.775,1.051,1.001,0.392
			c2.345-6.925,8.646-8.07,14.539-10.654C1.469,256.895,1.18,255.866,0.455,255.964z"/>
		<path style="fill:#FFFFFF;" d="M-13.09,279.363c-4.319,1.981-8.389,4.625-12.496,7.004c-0.424,0.242-0.141,0.95,0.304,0.71
			c4.194-2.29,8.598-4.404,12.564-7.083C-12.368,279.758-12.715,279.19-13.09,279.363z"/>
		<path style="fill:#FFFFFF;" d="M69.266,256.624c-5.53,1.415-11.32,2.712-16.68,4.712c-0.758,0.284-0.264,1.427,0.488,1.151
			c5.318-1.95,11.414-2.254,16.5-4.768C70.127,257.445,69.927,256.458,69.266,256.624z"/>
		<path style="fill:#FFFFFF;" d="M92.215,271.167c-2.357-0.063-4.821,0.949-7.023,1.721c-2.661,0.94-5.227,2.15-7.688,3.521
			c-0.834,0.464-0.262,1.839,0.585,1.374c2.229-1.21,4.523-2.25,6.896-3.151c2.41-0.916,5.075-1.237,7.401-2.306
			C92.903,272.092,92.855,271.182,92.215,271.167z"/>
		<path style="fill:#FFFFFF;" d="M92.563,262.098c-4.573-1.382-11.151,0.672-15.526,2.13c-5.754,1.917-10.672,5.717-13.355,11.193
			c-0.264,0.541,0.63,1.042,0.932,0.515c3.171-5.587,7.974-8.891,14.007-10.862c4.531-1.478,9.575-0.755,13.955-2.192
			C92.922,262.766,92.91,262.201,92.563,262.098z"/>
	</g>
	<path style="clip-path:url(#SVGID_00000119837356655936127440000003005731735904928652_);fill:#769194;" d="M146,81
		c-1.786-14.835-11.109-28.074-16.882-41.543c-8.729-20.365-8.816-39.68,8.058-55.692c1.605-1.522-0.544-4.219-2.154-2.689
		c-25.805,24.523-12.755,53.018,1.065,80.392c7.115,14.096,10.33,29.364,3.514,44.238c-8.31,18.131-30,22.478-47.873,22.384
		c-18.371-0.099-36.449-4.513-54.837-4.788c-16.905-0.252-32.078,4.87-45.608,14.852c-25.653,18.921-28.289,51.557-28.144,80.855
		c0.004,0.917,1.428,1.079,1.436,0.142c0.361-34.968,6.097-67.844,39.424-86.064c33.705-18.427,73.756,4.084,109.358-4.25
		C136.023,123.529,148.725,103.613,146,81z"/>
	<path style="clip-path:url(#SVGID_00000119837356655936127440000003005731735904928652_);fill:#CEDCDB;" d="M165.104,90.877
		c-2-16.616-12.443-31.445-18.908-46.531c-9.777-22.81-9.875-44.444,9.024-62.379c1.798-1.705-0.609-4.726-2.413-3.012
		C123.904,6.423,138.52,38.338,154,69c7.97,15.789,11.57,32.889,3.936,49.549c-9.307,20.308-33.602,25.177-53.621,25.071
		c-20.576-0.111-40.825-5.055-61.421-5.363c-18.935-0.282-35.93,5.455-51.084,16.635c-28.733,21.193-31.686,57.747-31.522,90.563
		c0.004,1.027,1.599,1.209,1.607,0.159c0.405-39.167,6.829-75.99,44.157-96.398c37.752-20.639,82.611,4.575,122.489-4.76
		C153.928,138.513,168.155,116.206,165.104,90.877z"/>
	<path style="clip-path:url(#SVGID_00000119837356655936127440000003005731735904928652_);fill:#CEDCDB;" d="M116.19,59.104
		c-1.728-14.349-10.745-27.155-16.328-40.183c-8.443-19.698-8.528-38.38,7.793-53.869c1.553-1.472-0.526-4.081-2.084-2.601
		c-24.959,23.72-12.337,51.281,1.03,77.759C113.484,53.846,116.594,68.613,110,83c-8.036,17.538-29.017,21.742-46.305,21.651
		c-17.77-0.096-35.256-4.365-53.041-4.631c-16.352-0.244-31.028,4.711-44.115,14.365c-24.813,18.301-27.362,49.869-27.222,78.207
		c0.004,0.887,1.381,1.044,1.389,0.137c0.35-33.823,5.897-65.623,38.133-83.246c32.601-17.824,71.34,3.951,105.777-4.111
		C106.539,100.24,118.826,80.976,116.19,59.104z"/>
	<g style="clip-path:url(#SVGID_00000119837356655936127440000003005731735904928652_);">
		<g>
			<g>
				<path style="fill:#FFFFFF;" d="M141.355,35.692c1.887-1.405,3.658-3.014,5.225-5.003c0.481-0.612,0.537-1.581,0.025-2.201
					c-0.658-0.791-1.311-1.581-2.003-2.341c-0.582-0.638-1.386-0.966-2.233-0.632c-7.764,3.056-13.185,7.844-15.021,16.191
					c-0.176,0.8,0.356,1.596,1.074,2.018c0.311,1.039,1.626,1.634,2.665,1.292C136.28,43.313,139.401,40.154,141.355,35.692z"/>
				<path style="fill:#FFFFFF;" d="M172.807,0.543c0.728-0.645,0.778-1.794,0.352-2.612c0.326-0.532,0.657-1.049,0.948-1.626
					c0.206-0.399,0.126-0.981-0.155-1.33c-0.326-0.399-0.662-0.785-1.009-1.167c-0.416-0.464-0.994-0.69-1.605-0.454
					c-7.729,2.981-14.846,7.132-16.919,15.676c-0.286,1.189,1.039,1.902,2.018,1.608c5.26-1.573,10.013-3.829,13.316-7.839
					C170.789,2.147,171.809,1.424,172.807,0.543z"/>
				<path style="fill:#FFFFFF;" d="M170.137,27.58c0.222-0.309,0.432-0.63,0.633-0.958c0.09-0.148,0.186-0.296,0.27-0.449
					c0.066-0.115,0.136-0.226,0.201-0.346c1.124-0.929,2.238-1.882,3.353-2.861c0.481-0.417,0.577-1.018,0.226-1.556
					c-0.306-0.467-0.657-0.891-0.994-1.328c0.161-1.24-0.878-2.65-2.208-2.353c-0.683,0.148-1.199,0.431-1.781,0.657
					c-7.092,0.883-11.774,6.808-13.319,13.689c-0.231,1.049,0.808,2.038,1.826,1.912C163.492,33.334,167.583,31.238,170.137,27.58z"
					/>
				<path style="fill:#FFFFFF;" d="M216.661-4.493c-4.401-8.417-17.204-0.452-22.184,2.705c-5.716,3.624-14.95,11.904-8.688,19.034
					c7.885,8.976,20.758-5.5,26.449-9.656c0.115-0.085,0.161-0.196,0.171-0.311C216.185,4.185,218.895-0.222,216.661-4.493z"/>
				<path style="fill:#FFFFFF;" d="M199.803,29.961c0.809-0.549,0.773-1.58,0.331-2.331c-1.545-2.622-4.622-2.005-7.322-1.142
					c-2.398,0.04-4.717,0.369-6.715,1.904c-1.31,1.001-2.163,2.542-2.951,4.098c-1.119,1.368-2.107,2.855-2.83,4.522
					c-0.598,1.388,0.868,3.142,2.354,2.432c0.331-0.158,0.637-0.364,0.964-0.535c0.186,0.098,0.401,0.166,0.672,0.113
					C190.639,37.8,194.664,33.447,199.803,29.961z"/>
				<path style="fill:#FFFFFF;" d="M172.817,41.484c-2.294-4.68-7.408-3.323-11.739-0.678c-4.572,1.335-8.582,4.683-10.449,9.112
					c-0.713,1.696-0.988,4.203,0.638,5.493c2.238,1.779,5.561,0.663,7.93-0.205c3.397-1.25,6.835-3.945,9.605-6.198
					C170.664,47.494,174.197,44.29,172.817,41.484z"/>
				<path style="fill:#FFFFFF;" d="M174.303,56.812c-0.267-1.194-1.34-2.078-2.6-1.578c-0.482,0.19-1.194,0.519-2.013,0.933
					c-7.272,1.749-12.938,7.859-12.552,15.724c0.045,0.936,1.194,1.644,2.048,1.24c1.169-0.55,2.268-1.197,3.322-1.895
					C169.59,69.835,176.13,64.827,174.303,56.812z"/>
				<path style="fill:#FFFFFF;" d="M205.358,43.818c0.156-0.138,0.312-0.269,0.467-0.412c1.2-1.079,0.607-3.373-1.229-3.122
					c-5.084,0.693-9.079,2.944-12.12,6.253c-0.086,0.068-0.166,0.138-0.246,0.206c-3.738,2.645-6.339,6.607-7.523,11.693
					c-0.346,1.471,1.285,2.429,2.53,2.025c0.136-0.043,0.251-0.131,0.386-0.176c0.518,0.374,1.2,0.529,1.797,0.278
					C197.102,57.313,202.222,51.469,205.358,43.818z"/>
				<path style="fill:#FFFFFF;" d="M138.443,78.111c3.277-2.193,5.938-5.094,7.97-8.627c0.708-0.996,1.36-2.033,1.938-3.094
					c0.176-0.327,0.141-0.7,0.03-1.059c0.125-0.334,0.286-0.638,0.401-0.976c0.667-1.95-1.295-3.428-3.017-2.381
					c-1.701,1.026-3.372,2.065-4.999,3.147c-0.195-0.289-0.592-0.434-0.828-0.058c-0.015,0.02-0.029,0.045-0.045,0.065
					c-0.01,0.025,0.016,0.05,0.006,0.075c-0.161-0.01-0.316-0.005-0.432,0.05c-0.452,0.244-0.898,0.49-1.351,0.743
					c-0.773,0.432-1.495,1.044-2.198,1.699c-2.163,1.006-4.055,2.361-5.561,4.09c-3.604,3.009-6.289,7.119-7.936,11.902
					c-0.432,1.265,0.432,2.898,1.947,2.655c4.031-0.653,7.438-2.56,10.385-5.099C136.145,80.37,137.359,79.311,138.443,78.111z"/>
				<path style="fill:#FFFFFF;" d="M108.456,88.415c0.146-0.898-0.361-1.779-1.279-2.151c-0.372-0.866-1.381-1.428-2.4-1.106
					c-0.225,0.075-0.432,0.183-0.652,0.261c-0.452-0.286-0.974-0.472-1.471-0.201c-0.261,0.141-0.512,0.289-0.772,0.432
					c-6.62,0.989-12.427,6.69-16.316,11.659c-2.906,3.709-7.583,11.807-1.45,14.805c7.196,3.519,17.094-7.716,21.108-12.133
					C108.01,96.916,110.017,91.461,108.456,88.415z"/>
				<path style="fill:#FFFFFF;" d="M109.565,123.71c0.451-0.399,0.707-0.916,0.777-1.463c0.011-0.005,0.021-0.02,0.03-0.02
					c1.1-0.693,0.607-2.655-0.688-2.748c-0.251-0.018-0.497,0.028-0.743,0.018c-0.691-0.963-1.947-1.448-3.056-0.437
					c-0.03,0.027-0.07,0.065-0.096,0.095c-1.375,0.542-2.771,1.134-4.146,1.802c-2.836,1.185-5.436,2.997-7.599,5.21
					c-0.069,0.075-0.146,0.143-0.21,0.216c-1.777,1.859-3.263,3.942-4.241,6.168c-0.372,0.849,0.03,1.877,0.753,2.412
					c0.355,1.508,2.027,2.146,3.473,1.328c3.317-1.877,6.349-4.196,9.094-6.818C105.209,127.632,107.388,125.614,109.565,123.71z"/>
				<path style="fill:#FFFFFF;" d="M137.921,98.618c2.329-1.551,3.418-4.675,4.377-7.137c0.502-1.295-0.236-2.786-1.656-3.004
					c-8.773-1.348-14.273,3.852-16.04,12.158c-0.316,1.496,1.054,2.464,2.358,2.474c3.383,0.04,6.028-1.395,8.476-3.282
					C136.296,99.517,137.134,99.145,137.921,98.618z"/>
				<path style="fill:#FFFFFF;" d="M181.52,86.081c-0.01-0.652-0.477-1.154-1.049-1.428c-1.23-2.022-3.734-2.958-7.268-1.478
					c-8.181,3.438-14.333,11.884-20.125,18.294c-2.675,2.961-5.606,6.75-5.28,10.946c0.267,3.363,3.985,5.498,7.052,4.918
					c6.931-1.305,11.935-5.511,15.814-10.8C176.26,101.685,181.64,93.702,181.52,86.081z"/>
				<path style="fill:#FFFFFF;" d="M131.698,134.944c-0.521-2.218-2.635-3.076-4.798-2.891c-8.015,0.672-15.734,7.45-20.361,13.626
					c-3.021,4.03-4.341,13.641,3.493,12.269c3.749-0.655,7.779-4.615,10.665-8.771c1.099-0.838,2.153-1.749,3.146-2.765
					c0.376-0.389,0.767-0.828,1.159-1.297c0.396-0.309,0.788-0.625,1.185-0.976c0.437-0.387,0.643-0.849,0.702-1.316
					C128.867,141.037,132.395,137.895,131.698,134.944z"/>
				<path style="fill:#FFFFFF;" d="M212.912,79.275c0.12-0.288,0.085-0.589,0.075-0.888c0.366-0.78,0.732-1.571,1.054-2.386
					c0.683-1.724-0.968-3.498-2.735-2.833c-2.229,0.843-4.371,1.807-6.373,2.926c-4.518,2.366-8.291,5.887-10.47,10.725
					c-0.125,0.281-0.176,0.582-0.15,0.874c-0.593,1.27-1.114,2.589-1.516,4.005c-0.181,0.624,0.542,1.372,1.175,1.234
					c1.33-0.301,2.6-0.67,3.824-1.089C204.942,91.115,210.151,85.78,212.912,79.275z"/>
				<path style="fill:#FFFFFF;" d="M260.259,55.233c-8.787-3.169-25.354,13.137-23.853,20.203c0,0.025-0.006,0.055-0.006,0.08
					c-0.451,0.903,0.021,1.978,0.824,2.499c-0.417-0.005-0.713,0.481-0.302,0.798c2.464,1.892,6.735,0.421,9.319-0.372
					c4.793-1.476,9.336-3.939,13.27-7.041C264.615,67.376,268.721,58.285,260.259,55.233z"/>
				<path style="fill:#FFFFFF;" d="M221.761,114.304c0.432-0.088,0.843-0.229,1.264-0.359c0.182-0.068,0.417-0.1,0.593-0.178
					c4.919-1.704,8.929-6.015,10.956-10.68c0.266-0.605,0.221-1.44-0.23-1.958c-0.337-0.389-0.613-0.815-0.919-1.232
					c-0.392-0.527-1.229-0.997-1.912-0.831c-7.554,1.844-14.529,6.323-17.712,13.631c-0.642,1.478,0.607,3.476,2.319,3.162
					c1.415-0.258,2.745-0.645,4.021-1.102C220.727,114.643,221.233,114.462,221.761,114.304z"/>
				<path style="fill:#FFFFFF;" d="M181.299,151.074c0.165-0.246,0.211-0.527,0.191-0.8c1.395-1.588,2.609-3.375,3.543-5.438
					c0.372-0.815,0.176-1.541-0.226-2.13c0.03-0.053,0.066-0.098,0.096-0.15c0.983-1.739-1.159-3.405-2.755-2.848
					c-9.01,3.144-17.521,9.558-20.758,18.8c-0.698,2.007,1.019,3.782,3.041,3.146c3.447-1.074,6.811-2.765,9.752-4.958
					C176.968,155.501,179.457,153.83,181.299,151.074z"/>
				<path style="fill:#FFFFFF;" d="M232.094,139.842c1.234-1.651,0.19-3.523-1.591-4.038c-0.392-0.113-0.783-0.078-1.174-0.121
					c-0.322-0.745-1.221-1.34-2.153-0.815c-0.813,0.459-1.576,0.976-2.354,1.473c-1.506,0.289-3.061,0.871-4.542,1.413
					c-5.129,1.877-9.194,5.859-11.357,10.815c-0.688,1.561,0.628,3.443,2.359,3.215c1.169-0.156,2.288-0.409,3.372-0.713
					C222.081,150.889,227.632,145.794,232.094,139.842z"/>
			</g>
			<path style="fill:#FFFFFF;" d="M187.181,111.682c-0.477-3.29-1.893-4.048-3.433-3.493c-0.181-0.09-0.387-0.121-0.587,0.038
				c-4,3.089-12.286,13.694-7.026,18.6c0.286,0.269,0.667,0.359,0.998,0.095c2.495-1.995,4.583-4.502,6.47-7.059
				C185.098,117.83,187.572,114.412,187.181,111.682z"/>
			<path style="fill:#FFFFFF;" d="M246.583,23.655c-3.287-0.602-6.725,1.568-8.783,4.023c-3.393,2.532-6.072,6.158-7.713,9.927
				c-1.446,3.323-1.095,7.463,3.467,5.93c3.007-1.009,5.857-3.385,8.307-5.347c2.891-2.311,6.027-5.189,7.433-8.695
				C250.156,27.341,249.058,24.109,246.583,23.655z"/>
			<path style="fill:#FFFFFF;" d="M266.935,95.933c-3.88-1.513-7.554,2.497-9.842,5.139c-4.999,3.232-9.396,8.514-7.609,14.135
				c0.999,3.145,4.307,2.477,7.428,0.916c4.708-1.518,9.215-4.376,12.061-8.321C271.23,104.665,271.235,97.614,266.935,95.933z"/>
		</g>
	</g>
	<path style="clip-path:url(#SVGID_00000119837356655936127440000003005731735904928652_);fill:#F8C772;" d="M809.672,149.185
		c-0.336-0.645-1.239-0.994-1.847-0.447c-21.295,19.205-35.167,45.159-56.146,64.722c-27.156,25.325-65.69,29.804-101.319,31.493
		c-20.32,0.961-40.557-0.893-60.853-0.459c-16.235,0.346-32.245,3.818-47.548,9.137c-31.307,10.885-59.151,30.98-81.951,54.76
		c-27.247,28.418-42.58,64.192-54.364,101.108c-17.841,25.073-32.531,52.047-47.984,78.715
		c-18.098,31.227-39.754,61.766-73.457,77.352c-0.495,0.23-0.153,0.994,0.344,0.772c28.12-12.587,48.13-35.641,64.592-61.025
		c17.767-27.39,32.08-56.82,50.398-83.884c1.395-2.068,2.86-4.088,4.296-6.131c-3.322,10.756-6.398,21.571-9.4,32.311
		c-14.403,51.532-29.972,103.916-67.578,143.782c-0.386,0.407,0.316,0.909,0.693,0.513c43.728-45.944,57.505-108.05,75.076-166.933
		c1.42-4.748,2.881-9.485,4.391-14.21c39.664-54.7,93.265-99.45,157.364-122.414c73.906-26.479,154.062-19.33,229.323-2.717
		c-1.602,1.158-3.223,2.283-4.713,3.593c-1.145,1.004,0.301,2.823,1.48,1.847c2.219-1.829,4.758-3.166,6.886-5.096
		c0.833-0.756,0.436-2.006-0.652-2.196c-35.879-6.319-71.211-13.593-107.738-15.081c-35.182-1.436-70.563,1.909-104.591,11.086
		c-67.236,18.131-125.254,61.377-168.129,115.498c-2.515,3.174-4.939,6.406-7.328,9.658c7.613-22.926,16.777-45.327,29.686-65.852
		c18.157-28.86,44.542-52.627,73.997-69.563c26.564-15.277,56.867-24.035,87.617-22.715c32.818,1.407,65.647,1.139,97.982-5.263
		c25.364-5.021,45.831-15.862,63.577-34.732c15.819-16.821,28.657-36.05,44.457-52.906c0.501,0.349,1.3,0.309,1.621-0.429
		C808.769,151.405,811.017,151.749,809.672,149.185z"/>
	<g style="clip-path:url(#SVGID_00000119837356655936127440000003005731735904928652_);">
		<path style="fill:#FFFFFF;" d="M361.907,150.396c-11.824,41.724-32.993,80.519-58.532,115.413
			c-24.805,33.889-58.827,71.58-101.813,80.543c-0.695,0.146-0.572,1.25,0.135,1.107c42.91-8.35,76.552-45.017,101.772-78.296
			c26.027-34.351,51.076-75.939,60.674-118.438C364.472,149.277,362.293,149.036,361.907,150.396z"/>
		<path style="fill:#FFFFFF;" d="M428.067,107.824c-0.71,0.688,0.389,1.553,1.103,1.147c1.523-0.873-0.171,1.458-0.363,1.887
			c-0.931,2.038-1.952,4.03-2.981,6.02c-2.258,4.372-4.647,8.68-6.78,13.119c-6.579,13.696-10.323,29.042-16.627,43.006
			c-13.81,30.6-29.978,60.158-49.887,87.229c-18.289,24.86-39.508,48.87-62.228,69.758c-23.525,21.621-50.685,40.251-81.412,49.781
			c-0.7,0.217-0.269,1.221,0.414,1.037c34.238-9.18,63.634-31.431,88.985-55.461c25.73-24.393,49.45-52.734,69.026-82.257
			c21.049-31.751,38.75-67.231,51.048-103.284c3.602-10.555,10.118-19.679,13.76-30.136
			C433.565,105.531,430.406,105.566,428.067,107.824z"/>
	</g>
	<path style="clip-path:url(#SVGID_00000119837356655936127440000003005731735904928652_);fill:#FFC58E;" d="M412.509,534.673
		c-28.015-24.801-60.813-43.405-92.031-63.736c-15.646-10.189-31.998-20.364-44.324-34.572
		c-11.036-12.72-19.457-27.388-31.601-39.191c-13.137-12.775-23.749-26.226-32.704-42.259c-6.756-12.09-12.123-24.888-18.939-36.93
		c-9.796-17.313-23.101-36.15-41.184-45.543c-6.477-3.363-13.942-4.459-20.705-1.354c-8.737,4.016-13.34,14.196-16.387,22.673
		c-6.012,16.716-6.825,34.517-6.389,52.101c0.484,19.385,1.523,38.195-1.057,57.5c-2.176,16.285-4.426,32.19-4.793,48.642
		c-0.002,0.073-0.002,0.146-0.007,0.219c-1.729,8.042-1.677,16.434-1.685,24.64c0,0.339,0.153,0.59,0.364,0.76
		c-0.176,2.022-0.306,4.051-0.341,6.093c-0.006,0.268,0.115,0.497,0.285,0.676c-0.045,0.547-0.077,1.094-0.115,1.644
		c-0.587,2.245-1.033,4.521-1.324,6.851c-0.452,0.123-0.849,0.469-0.932,1.071c-2.928,20.895-2.229,45.57,16,59.558
		c7.942,6.096,18.11,8.663,27.867,9.899c16.993,2.156,34.624,0.028,51.686-0.148c20.977-0.214,41.957,0,62.934-0.268
		c19.844-0.256,39.171-2.023,58.664,2.662c15.822,3.8,30.996,9.822,47.106,12.475c13.937,2.293,28.923,1.332,42.63-1.97
		c8.291-1.998,18.659-5.777,21.751-14.577C430.983,551.071,419.249,540.643,412.509,534.673z"/>
	<path style="clip-path:url(#SVGID_00000119837356655936127440000003005731735904928652_);fill:#FAF5F3;" d="M774.637,401.487
		c-2.564-15.291-6.415-30.433-11.288-45.147c-3.646-11.016-7.977-23.607-16.956-31.463c-9.873-8.648-24.848-7.931-37.057-7.545
		c-4.868,0.153-9.727,0.307-14.584-0.046c-1.34-0.096-1.645,1.366-1.029,2.255c-28.417,2.702-54.789,14.558-82.313,24.62
		c-21.63,7.908-43.472,13.132-66.459,14.904c-22.334,1.722-44.811,0.739-67.176,0.335c-28.973-0.518-56.848,0.776-84.941,7.921
		c-16.924,4.305-45.5,11.722-50.684,31.416c-5.226,19.854,20.83,24.301,34.428,25.447c24.151,2.038,48.274-1.895,72.415-1.073
		c6.288,0.216,12.087,1.985,18.132,3.682c11.466,3.226,22.785,6.988,34.099,10.709c22.088,7.265,43.981,13.708,66.846,18.04
		c31.46,5.951,63.379,7.416,94.742,13.751c39.319,7.94,103.137,21.801,113.118-32.923
		C778.06,424.704,776.575,413.063,774.637,401.487z"/>
	<g style="clip-path:url(#SVGID_00000119837356655936127440000003005731735904928652_);">
		<path style="fill:#EFA174;" d="M423.413,430.367c-2.884,1.118-3.95,4.279-2.153,6.79c0.874,1.217,1.993,2.209,3.169,3.123
			c1.523,2.042,3.481,3.763,5.762,5.058c0.128,0.069,0.269,0.039,0.351-0.083c1.558-2.221-0.165-7.17-0.984-9.335
			C428.709,433.69,426.624,429.122,423.413,430.367z M429.852,438.838c0.453,1.761,0.861,3.804,0.501,5.609
			c-0.059,0.309-0.73-0.064-1.557-0.664c1.313-0.101-0.237-1.72-0.797-2.125c-1.069-0.779-2.695-1.759-4.091-2.924
			c-0.854-1.45-1.503-3.022-2.052-4.623c-0.072-0.202-0.385-0.143-0.332,0.067c0.309,1.253,0.754,2.436,1.31,3.548
			c-1.094-1.157-1.821-2.468-1.523-3.944c0.549-2.74,3.732-3.468,5.536-1.608C428.507,433.888,429.282,436.591,429.852,438.838z"/>
		<path style="fill:#EFA174;" d="M411.794,406.992c-2.521,3.036-1.75,6.781-0.295,10.212c0.153,0.367,0.657,0.122,0.613-0.221
			c-0.388-3.091-1.928-5.821-0.179-8.81c0.508-0.862,5.413,6.104,5.738,6.74c0.823,1.611,1.194,3.365,1.255,5.16
			c0.024,0.792-0.432,5.608-2.146,4.602c-4.085-2.389-5.979-7.846-7.711-11.975c-0.112-0.264-0.49-0.055-0.391,0.205
			c1.952,5.011,3.958,10.055,8.77,12.915c0.148,0.084,0.357,0.052,0.442-0.104c4.067-7.018-0.305-13.76-5.508-18.701
			C412.235,406.875,411.944,406.81,411.794,406.992z"/>
		<path style="fill:#EFA174;" d="M432.935,410.185c-1.911-0.635-4.254-0.405-5.245,1.554c-1.619,3.183,1.025,7.933,2.617,10.545
			c0.285,0.461,1.012,0.098,0.755-0.39c-1.297-2.466-4.586-7.622-2.233-10.392c1.534-1.799,4.624-0.44,6.167,0.575
			c2.422,1.592,3.928,4.316,3.757,7.226c-0.045,0.745-0.258,1.465-0.505,2.162c-0.425,1.202-0.886,2.701-2.322,1.973
			c-3.371-1.705-6.016-4.754-7.12-8.362c-0.124-0.396-0.751-0.264-0.632,0.132c1.324,4.409,4.614,7.604,8.74,9.487
			c0.151,0.067,0.322-0.029,0.408-0.147C441.188,419.258,439.311,412.313,432.935,410.185z"/>
		<path style="fill:#EFA174;" d="M428.541,384.65c-0.13-0.053-0.321-0.011-0.418,0.094c-1.9,2.139-1.503,3.969-0.384,5.744
			c1.512,5.268,5.461,9.381,11.277,9.343c0.199,0,0.395-0.149,0.397-0.364C439.559,391.934,435.367,387.252,428.541,384.65z
			 M438.255,394.977c0.721,2.466,1.043,4.447-2.003,3.843c-3.392-0.671-5.711-3.391-7.097-6.423c0.433,0.53,0.882,1.066,1.3,1.61
			c0.254,0.329,0.759-0.058,0.58-0.409c-1.101-2.161-3.811-3.934-3.311-6.62c0.67-3.577,6.778,1.866,7.917,3.046
			C436.976,391.405,437.728,393.168,438.255,394.977z"/>
		<path style="fill:#EFA174;" d="M443.582,431.46c-0.265,0.05-0.381,0.306-0.354,0.549c0.268,2.447,1.323,4.688,2.74,6.685
			c2.685,5.524,8.44,12.753,12.159,7.587C463.253,439.153,449.745,430.374,443.582,431.46z M458.275,441.75
			c0.721,2.397-0.905,6.147-3.817,5.495c-1.78-0.395-3.23-2.136-4.377-3.432c-0.774-0.879-1.604-1.92-2.376-3.047
			c0.178,0.026,0.346-0.173,0.27-0.373c-0.744-1.964-2.023-3.549-2.922-5.384c-0.038-0.184-0.094-0.37-0.117-0.554
			c-0.018-0.12-0.106-0.159-0.199-0.156c-0.182-0.44-0.35-0.892-0.466-1.373c-0.367-1.506,3.3-0.181,4.177,0.13
			C452.439,434.458,457.007,437.518,458.275,441.75z"/>
		<path style="fill:#EFA174;" d="M453.669,403.555c-0.137-0.09-0.346-0.081-0.463,0.042c-0.285,0.585-0.686,0.621-1.204,0.107
			c-0.213-0.186-0.614-0.174-0.692,0.153c-0.73,3.075-0.086,5.583,1.413,7.727c1.574,3.167,4.103,5.639,6.784,8.047
			c0.134,0.116,0.381,0.14,0.48-0.049C463.27,413.355,458.978,406.934,453.669,403.555z M460.539,415.674
			c0.007-0.276-0.418,3.69-1.252,2.955c-0.717-0.628-1.413-1.276-2.105-1.935c-1.009-0.96-1.907-1.998-2.692-3.105
			c0.665,0.629,1.385,1.231,2.188,1.801c0.24,0.173,0.514-0.178,0.322-0.39c-2.573-2.842-5.44-4.98-5.218-9.205
			c0.107-1.927-0.034-0.771,0.954-0.847c0.912-0.068,0.864-0.582,1.935,0.149C458.104,407.452,460.595,411.466,460.539,415.674z"/>
		<path style="fill:#EFA174;" d="M467.824,402.61c-0.243-0.125-0.634-0.063-0.699,0.259c-0.069,0.349-0.113,0.686-0.141,1.008
			c-0.089-0.254-0.509-0.26-0.512,0.055c-0.103,8.29,5.214,14.683,11.868,19.048c0.168,0.11,0.449,0.026,0.493-0.184
			C480.81,414.091,475.302,406.499,467.824,402.61z M477.682,421.759c-2.041-1.326-3.837-2.983-5.494-4.759
			c-2.867-3.057-4.631-6.857-5.06-10.954c0.247,1.075,0.738,2.1,1.434,3.226c0.175,0.28,0.666,0.144,0.573-0.209
			c-0.318-1.2-0.854-2.239-1.228-3.426c-1.152-3.635,4.98,1.318,4.671,1.049c2.942,2.525,4.888,6.026,5.769,9.769
			C478.389,416.62,478.752,422.451,477.682,421.759z"/>
		<path style="fill:#EFA174;" d="M404.464,383.44c-0.192-0.02-0.374,0.123-0.429,0.3c-1.267,3.903,1.207,6.845,3.412,9.886
			c0.22,0.302,0.683-0.055,0.522-0.366c-0.909-1.783-6.556-9.96-0.947-8.509c3.508,0.903,6.29,3.739,8.032,6.784
			c0.737,1.288,1.115,2.724,1.365,4.174c0.113,0.848,0.12,1.699,0.018,2.551c-0.224,3.011-1.753,1.302-3.289-0.053
			c-3.657-3.213-5.516-8.127-6.589-12.733c-0.072-0.31-0.557-0.205-0.487,0.105c1.402,6.348,4.264,11.987,9.851,15.573
			c0.195,0.126,0.442,0.016,0.517-0.19C419.477,392.854,412.647,384.223,404.464,383.44z"/>
	</g>
	<g style="clip-path:url(#SVGID_00000119837356655936127440000003005731735904928652_);">
		<path style="fill:#EFA174;" d="M-3.701,277.367c-0.972-3.622-4.643-5.32-7.903-3.481c-1.582,0.896-2.923,2.115-4.178,3.413
			c-2.661,1.57-4.989,3.707-6.848,6.287c-0.101,0.144-0.083,0.316,0.053,0.433c2.475,2.166,8.666,0.735,11.381,0.03
			C-8.396,283.319-2.619,281.4-3.701,277.367z M-14.751,284.024c-2.183,0.315-4.698,0.542-6.828-0.128
			c-0.364-0.11,0.175-0.873,1.004-1.791c-0.049,1.597,2.103-0.062,2.665-0.682c1.08-1.188,2.473-3.021,4.059-4.551
			c1.86-0.84,3.838-1.418,5.841-1.87c0.253-0.06,0.223-0.444-0.037-0.41c-1.552,0.208-3.035,0.593-4.448,1.117
			c1.537-1.167,3.212-1.874,4.953-1.321c3.232,1.018,3.693,4.95,1.217,6.883C-8.609,283.049-11.969,283.63-14.751,284.024z"/>
		<path style="fill:#EFA174;" d="M25.991,266.41c-3.33-3.436-7.945-2.992-12.269-1.688c-0.463,0.137-0.234,0.777,0.185,0.768
			c3.776-0.063,7.269-1.563,10.642,0.934c0.974,0.726-8.064,5.729-8.873,6.039c-2.051,0.782-4.212,1-6.384,0.84
			c-0.959-0.074-6.704-1.252-5.267-3.188c3.412-4.613,10.237-6.184,15.438-7.732c0.334-0.102,0.131-0.584-0.194-0.499
			c-6.294,1.7-12.637,3.46-16.713,8.888c-0.12,0.166-0.108,0.424,0.069,0.547c7.928,5.818,16.625,1.428,23.261-4.2
			C26.076,266.958,26.192,266.616,25.991,266.41z"/>
		<path style="fill:#EFA174;" d="M19.387,291.478c1.013-2.221,1.042-5.074-1.189-6.524c-3.626-2.366-9.696,0.201-13.053,1.778
			c-0.594,0.284-0.25,1.207,0.371,0.961c3.143-1.241,9.786-4.533,12.817-1.336c1.968,2.084-0.073,5.631-1.498,7.358
			c-2.234,2.712-5.715,4.172-9.199,3.585c-0.893-0.15-1.731-0.501-2.541-0.89c-1.393-0.67-3.141-1.42-2.074-3.057
			c2.495-3.841,6.516-6.632,11.01-7.491c0.492-0.098,0.415-0.872-0.077-0.779c-5.488,1.021-9.77,4.569-12.577,9.298
			c-0.101,0.174-0.006,0.393,0.124,0.512C7.372,300.242,15.988,298.888,19.387,291.478z"/>
		<path style="fill:#EFA174;" d="M50.739,289.513c0.08-0.15,0.054-0.388-0.06-0.517c-2.33-2.57-4.588-2.329-6.873-1.212
			c-6.548,1.136-12.02,5.358-12.734,12.376c-0.025,0.239,0.129,0.494,0.388,0.526C40.522,301.844,46.712,297.401,50.739,289.513z
			 M37.024,299.875c-3.066,0.546-5.498,0.677-4.372-2.916c1.252-4.001,4.833-6.441,8.668-7.717c-0.694,0.452-1.4,0.924-2.11,1.357
			c-0.43,0.262-0.028,0.92,0.418,0.752c2.749-1.045,5.238-4.08,8.412-3.127c4.225,1.273-3.133,7.927-4.704,9.145
			C41.495,298.799,39.272,299.475,37.024,299.875z"/>
		<path style="fill:#EFA174;" d="M-7.649,301.536c-0.024-0.324-0.317-0.498-0.615-0.496c-2.984,0.003-5.822,0.983-8.415,2.431
			c-7.01,2.518-16.473,8.512-10.731,13.668C-19.488,324.245-7.144,309.108-7.649,301.536z M-21.969,317.906
			c-2.984,0.557-7.291-1.892-6.126-5.317c0.708-2.095,2.995-3.616,4.708-4.828c1.159-0.82,2.522-1.684,3.98-2.467
			c-0.054,0.211,0.164,0.438,0.415,0.375c2.465-0.643,4.542-1.978,6.871-2.82c0.226-0.023,0.459-0.064,0.684-0.07
			c0.146-0.004,0.206-0.105,0.214-0.218c0.555-0.162,1.12-0.307,1.716-0.384c1.863-0.247-0.213,4.001-0.702,5.019
			C-12.418,311.821-16.702,316.929-21.969,317.906z"/>
		<path style="fill:#EFA174;" d="M24.674,317.336c0.126-0.153,0.143-0.406,0.009-0.563c-0.668-0.419-0.658-0.907,0.028-1.465
			c0.251-0.232,0.289-0.717-0.096-0.855c-3.61-1.281-6.717-0.832-9.497,0.695c-4.024,1.485-7.332,4.211-10.584,7.13
			c-0.157,0.145-0.219,0.439-0.006,0.583C11.606,327.631,19.907,323.295,24.674,317.336z M9.168,324.037
			c0.332,0.044-4.392-0.985-3.399-1.896c0.851-0.781,1.723-1.536,2.608-2.285c1.288-1.091,2.656-2.038,4.094-2.841
			c-0.845,0.72-1.665,1.51-2.455,2.403c-0.24,0.268,0.146,0.643,0.427,0.439c3.761-2.731,6.713-5.908,11.776-5.089
			c2.309,0.38,0.934,0.06,0.896,1.26c-0.036,1.109,0.589,1.119-0.433,2.314C19.396,322.174,14.233,324.652,9.168,324.037z"/>
		<path style="fill:#EFA174;" d="M23.965,334.522c0.183-0.277,0.158-0.756-0.221-0.877c-0.411-0.129-0.811-0.226-1.196-0.301
			c0.318-0.074,0.379-0.579,0.001-0.624c-9.979-1.204-18.379,4.37-24.509,11.822c-0.154,0.188-0.09,0.537,0.157,0.619
			C8.432,348.679,18.303,343.029,23.965,334.522z M-0.403,343.907c1.865-2.287,4.098-4.236,6.454-6.002
			c4.058-3.059,8.87-4.688,13.863-4.67c-1.328,0.157-2.626,0.614-4.075,1.308c-0.359,0.174-0.261,0.783,0.178,0.718
			c1.488-0.229,2.811-0.737,4.29-1.033c4.532-0.915-2.239,5.831-1.874,5.494c-3.427,3.218-7.902,5.104-12.527,5.68
			C5.699,345.43-1.378,345.107-0.403,343.907z"/>
		<path style="fill:#EFA174;" d="M55.339,260.647c0.048-0.23-0.1-0.467-0.306-0.556c-4.54-2.035-8.408,0.563-12.361,2.823
			c-0.392,0.227-0.023,0.83,0.373,0.677c2.268-0.862,12.861-6.602,10.381-0.03c-1.547,4.111-5.329,7.094-9.226,8.797
			c-1.649,0.721-3.429,0.988-5.21,1.101c-1.036,0.026-2.063-0.077-3.076-0.311c-3.601-0.661-1.341-2.282,0.492-3.957
			c4.351-3.989,10.515-5.588,16.208-6.283c0.383-0.046,0.32-0.643-0.063-0.6c-7.834,0.862-15.006,3.576-20.058,9.843
			c-0.177,0.22-0.076,0.53,0.162,0.649C42.032,277.516,53.327,270.408,55.339,260.647z"/>
	</g>
	<path style="clip-path:url(#SVGID_00000119837356655936127440000003005731735904928652_);fill:#EFA174;" d="M611.649,94.202
		c-1.867-7.313,1.33-14.7-0.16-22.045c-1.14-5.573-6.721-10.65-15.002-13.041c-9.054-2.612-20.296-1.922-29.987-1.912
		c-14.424,0.015-28.838,0.665-43.212,1.335c-7.543,0.351-14.795,0.266-22.308-0.261c-7.122-0.497-14.233-1.175-21.421-1.112
		c-8.2,0.068-16.491,1.701-24.341,2.996c-1.621,0.269-3.247,0.545-4.873,0.821c-12.336-1.285-24.894-1.792-37.274-1.28
		c-9.626,0.402-20.005,1.619-28.296,4.806c-8.813,3.393-15.327,8.366-22.108,13.114c-3.558,2.494-7.281,4.883-11.508,6.956
		c-4.486,2.198-9.19,4.05-13.34,6.52c-6.916,4.11-12.17,9.362-11.709,15.433c0.978,12.873,24.361,15.114,40.723,14.12
		c21.365-1.3,41.229-6.956,62.243-9.335c14.192-1.608,28.958-2.354,43.388-1.985c13.324,0.344,26.328,2.552,39,4.949
		c22.836,4.318,45.044,9.026,69.309,7.591c13.792-0.815,27.066-4.246,30.866-13.099C613.662,104.053,612.864,98.957,611.649,94.202z
		"/>
	<path style="clip-path:url(#SVGID_00000119837356655936127440000003005731735904928652_);fill:#FFFFFF;" d="M64.885,636.706
		c16.918,21.581,38.53,42.705,63.088,55.127c20.479,10.354,43.63,13.196,65.974,14.393c49.213,2.62,102.334-3.579,143.062,31.97
		c0.424,0.363,0.964-0.255,0.554-0.626c-58.982-53.294-142.147-16.157-208.436-48.049c-21.756-10.471-40.768-29.299-56.454-47.444
		c-16.461-19.029-29.577-40.851-39.066-64.031c-18.617-45.48-19.624-95.844-2.11-140.59c17.158-43.811,46.971-82.769,40.951-132.97
		c-3.369-28.189-18.455-49.997-37.758-70.331c-20.654-21.753-46.585-40.727-61-67.556c-0.863-1.597-3.131-0.087-2.283,1.496
		c22.605,42.127,70.463,64.672,90.907,108.608c18.585,39.94,3.44,82.338-14.033,118.129c-8.37,17.145-17.056,34.11-23.249,52.263
		c-6.764,19.806-9.363,40.813-8.885,61.91C17.185,555.197,36.252,600.192,64.885,636.706z"/>
	<g style="clip-path:url(#SVGID_00000119837356655936127440000003005731735904928652_);">
		<g>
			<path style="fill:#FFFFFF;" d="M212.306,517.49c-1.757,1.166-3.411,2.499-4.873,4.148c-0.444,0.506-0.495,1.313-0.021,1.824
				c0.611,0.651,1.224,1.309,1.873,1.939c0.537,0.53,1.286,0.799,2.078,0.523c7.238-2.533,12.297-6.5,14.004-13.422
				c0.172-0.664-0.331-1.324-1.001-1.67c-0.287-0.864-1.512-1.357-2.483-1.075C217.041,511.172,214.127,513.79,212.306,517.49z"/>
			<path style="fill:#FFFFFF;" d="M182.982,546.628c-0.677,0.532-0.728,1.489-0.324,2.164c-0.303,0.441-0.619,0.869-0.886,1.35
				c-0.194,0.329-0.123,0.813,0.142,1.101c0.304,0.333,0.614,0.652,0.937,0.969c0.396,0.384,0.929,0.572,1.505,0.375
				c7.203-2.471,13.837-5.913,15.775-12.994c0.265-0.985-0.973-1.574-1.887-1.33c-4.9,1.305-9.333,3.172-12.413,6.496
				C184.867,545.298,183.917,545.896,182.982,546.628z"/>
			<path style="fill:#FFFFFF;" d="M185.471,524.214c-0.207,0.253-0.402,0.522-0.59,0.798c-0.078,0.12-0.172,0.242-0.251,0.37
				c-0.058,0.096-0.122,0.187-0.188,0.284c-1.05,0.771-2.086,1.566-3.122,2.372c-0.453,0.352-0.538,0.85-0.208,1.292
				c0.279,0.39,0.605,0.734,0.921,1.1c-0.151,1.03,0.819,2.194,2.057,1.952c0.634-0.122,1.123-0.359,1.662-0.544
				c6.615-0.729,10.983-5.644,12.422-11.351c0.215-0.863-0.757-1.689-1.705-1.583C191.667,519.445,187.854,521.182,185.471,524.214z
				"/>
			<path style="fill:#FFFFFF;" d="M142.092,550.801c4.104,6.979,16.042,0.377,20.684-2.239c5.325-3.008,13.939-9.872,8.102-15.777
				c-7.354-7.447-19.355,4.555-24.668,8.004c-0.101,0.066-0.144,0.16-0.15,0.256C142.539,543.609,140.008,547.263,142.092,550.801z"
				/>
			<path style="fill:#FFFFFF;" d="M157.817,522.24c-0.762,0.455-0.727,1.313-0.317,1.934c1.445,2.172,4.31,1.663,6.83,0.946
				c2.238-0.035,4.396-0.307,6.26-1.58c1.224-0.829,2.021-2.108,2.749-3.397c1.044-1.133,1.972-2.367,2.641-3.749
				c0.561-1.151-0.806-2.604-2.189-2.015c-0.315,0.13-0.596,0.303-0.905,0.446c-0.166-0.083-0.374-0.14-0.626-0.095
				C166.358,515.741,162.602,519.35,157.817,522.24z"/>
			<path style="fill:#FFFFFF;" d="M182.967,512.69c2.145,3.877,6.916,2.754,10.953,0.563c4.261-1.109,8.002-3.883,9.742-7.556
				c0.662-1.407,0.916-3.484-0.597-4.556c-2.086-1.471-5.18-0.547-7.389,0.174c-3.166,1.036-6.378,3.267-8.96,5.136
				C184.981,507.705,181.685,510.359,182.967,512.69z"/>
			<path style="fill:#FFFFFF;" d="M181.585,499.982c0.254,0.986,1.251,1.722,2.427,1.309c0.445-0.157,1.113-0.432,1.878-0.776
				c6.778-1.446,12.061-6.514,11.7-13.033c-0.044-0.773-1.109-1.362-1.906-1.026c-1.095,0.458-2.116,0.989-3.102,1.571
				C185.981,489.185,179.881,493.336,181.585,499.982z"/>
			<path style="fill:#FFFFFF;" d="M152.628,510.751c-0.143,0.118-0.288,0.224-0.433,0.342c-1.122,0.898-0.567,2.799,1.145,2.589
				c4.743-0.576,8.465-2.438,11.307-5.183c0.07-0.059,0.15-0.115,0.224-0.17c3.489-2.191,5.915-5.479,7.016-9.695
				c0.323-1.219-1.202-2.017-2.354-1.678c-0.129,0.033-0.237,0.106-0.359,0.142c-0.491-0.308-1.124-0.435-1.685-0.23
				C160.327,499.567,155.556,504.41,152.628,510.751z"/>
			<path style="fill:#FFFFFF;" d="M215.026,482.324c-3.06,1.817-5.54,4.225-7.433,7.153c-0.663,0.826-1.268,1.683-1.808,2.566
				c-0.166,0.268-0.131,0.576-0.028,0.876c-0.116,0.275-0.267,0.527-0.375,0.813c-0.619,1.612,1.209,2.834,2.814,1.971
				c1.583-0.851,3.143-1.712,4.661-2.611c0.183,0.244,0.548,0.365,0.771,0.053c0.016-0.021,0.029-0.038,0.037-0.058
				c0.014-0.02-0.008-0.042,0-0.058c0.152,0.006,0.296,0.003,0.402-0.045c0.425-0.202,0.843-0.406,1.259-0.614
				c0.72-0.358,1.391-0.864,2.052-1.407c2.015-0.838,3.777-1.961,5.188-3.391c3.354-2.496,5.857-5.906,7.391-9.872
				c0.404-1.044-0.402-2.4-1.813-2.201c-3.756,0.544-6.938,2.124-9.678,4.229C217.169,480.454,216.033,481.327,215.026,482.324z"/>
			<path style="fill:#FFFFFF;" d="M242.982,473.785c-0.138,0.742,0.339,1.474,1.196,1.785c0.344,0.717,1.287,1.184,2.236,0.913
				c0.208-0.063,0.404-0.152,0.61-0.217c0.42,0.236,0.9,0.39,1.369,0.166c0.243-0.115,0.475-0.235,0.719-0.357
				c6.175-0.816,11.585-5.547,15.213-9.667c2.713-3.071,7.074-9.783,1.353-12.272c-6.706-2.917-15.939,6.398-19.682,10.058
				C243.399,466.738,241.53,471.257,242.982,473.785z"/>
			<path style="fill:#FFFFFF;" d="M241.946,444.526c-0.416,0.327-0.662,0.76-0.721,1.213c-0.012,0-0.02,0.014-0.029,0.017
				c-1.028,0.576-0.565,2.201,0.643,2.274c0.23,0.016,0.46-0.022,0.691-0.016c0.646,0.802,1.818,1.202,2.848,0.364
				c0.028-0.018,0.063-0.055,0.094-0.077c1.281-0.447,2.575-0.944,3.863-1.496c2.643-0.979,5.066-2.484,7.081-4.319
				c0.065-0.061,0.138-0.118,0.201-0.18c1.656-1.538,3.038-3.265,3.951-5.111c0.354-0.7-0.027-1.555-0.703-1.996
				c-0.332-1.251-1.894-1.782-3.231-1.1c-3.095,1.555-5.923,3.474-8.486,5.648C246.013,441.272,243.982,442.943,241.946,444.526z"/>
			<path style="fill:#FFFFFF;" d="M215.508,465.326c-2.165,1.279-3.188,3.871-4.08,5.915c-0.468,1.071,0.222,2.306,1.548,2.492
				c8.175,1.116,13.306-3.2,14.953-10.08c0.294-1.237-0.987-2.043-2.202-2.051c-3.152-0.032-5.612,1.155-7.901,2.72
				C217.026,464.578,216.248,464.886,215.508,465.326z"/>
			<path style="fill:#FFFFFF;" d="M174.858,475.719c0.013,0.542,0.444,0.958,0.978,1.182c1.144,1.675,3.482,2.457,6.779,1.229
				c7.629-2.854,13.362-9.854,18.76-15.166c2.497-2.453,5.23-5.596,4.922-9.076c-0.244-2.789-3.714-4.555-6.569-4.075
				c-6.463,1.082-11.133,4.565-14.746,8.951C179.766,462.779,174.75,469.402,174.858,475.719z"/>
			<path style="fill:#FFFFFF;" d="M221.315,435.213c0.482,1.835,2.454,2.549,4.477,2.399c7.47-0.564,14.665-6.182,18.982-11.3
				c2.814-3.343,4.045-11.308-3.26-10.172c-3.496,0.544-7.253,3.825-9.938,7.271c-1.03,0.695-2.016,1.449-2.943,2.294
				c-0.355,0.321-0.712,0.684-1.08,1.074c-0.367,0.257-0.732,0.518-1.1,0.81c-0.412,0.323-0.598,0.701-0.655,1.092
				C223.956,430.165,220.66,432.765,221.315,435.213z"/>
			<path style="fill:#FFFFFF;" d="M145.583,481.358c-0.108,0.241-0.071,0.486-0.064,0.736c-0.346,0.65-0.683,1.302-0.984,1.98
				c-0.643,1.427,0.898,2.897,2.553,2.345c2.081-0.698,4.074-1.497,5.938-2.425c4.21-1.961,7.735-4.882,9.766-8.886
				c0.114-0.237,0.165-0.483,0.143-0.727c0.548-1.053,1.036-2.147,1.41-3.317c0.166-0.521-0.51-1.142-1.093-1.023
				c-1.244,0.249-2.426,0.551-3.568,0.901C153.016,471.545,148.161,475.966,145.583,481.358z"/>
			<path style="fill:#FFFFFF;" d="M101.437,501.291c8.195,2.626,23.646-10.892,22.248-16.746c0-0.025,0-0.048,0-0.07
				c0.427-0.748-0.013-1.638-0.761-2.069c0.381,0.003,0.661-0.399,0.272-0.662c-2.296-1.567-6.273-0.352-8.686,0.307
				c-4.468,1.225-8.707,3.271-12.37,5.839C97.377,491.225,93.55,498.761,101.437,501.291z"/>
			<path style="fill:#FFFFFF;" d="M137.337,452.323c-0.403,0.07-0.784,0.188-1.18,0.296c-0.166,0.056-0.389,0.085-0.556,0.148
				c-4.582,1.414-8.325,4.988-10.21,8.852c-0.245,0.503-0.202,1.193,0.208,1.625c0.324,0.319,0.575,0.675,0.864,1.02
				c0.367,0.436,1.144,0.825,1.776,0.689c7.045-1.529,13.551-5.244,16.524-11.299c0.597-1.226-0.569-2.883-2.167-2.624
				c-1.317,0.215-2.563,0.534-3.75,0.919C138.301,452.041,137.826,452.192,137.337,452.323z"/>
			<path style="fill:#FFFFFF;" d="M175.066,421.841c-0.159,0.203-0.203,0.437-0.173,0.666c-1.31,1.312-2.441,2.795-3.312,4.504
				c-0.346,0.678-0.164,1.279,0.21,1.77c-0.029,0.04-0.059,0.079-0.086,0.123c-0.921,1.441,1.079,2.821,2.566,2.361
				c8.399-2.606,16.337-7.924,19.352-15.586c0.654-1.662-0.942-3.135-2.837-2.609c-3.208,0.89-6.347,2.291-9.088,4.114
				C179.104,418.169,176.777,419.557,175.066,421.841z"/>
			<path style="fill:#FFFFFF;" d="M127.702,431.149c-1.152,1.369-0.174,2.921,1.482,3.347c0.367,0.096,0.731,0.064,1.093,0.102
				c0.301,0.618,1.145,1.113,2.014,0.676c0.756-0.381,1.47-0.81,2.197-1.22c1.395-0.236,2.849-0.723,4.23-1.17
				c4.787-1.556,8.571-4.856,10.595-8.966c0.633-1.297-0.592-2.858-2.203-2.665c-1.094,0.127-2.137,0.339-3.145,0.588
				C137.043,421.994,131.86,426.217,127.702,431.149z"/>
		</g>
		<path style="fill:#FFFFFF;" d="M169.582,454.495c0.438,2.726,1.764,3.355,3.203,2.895c0.165,0.074,0.359,0.1,0.547-0.028
			c3.728-2.563,11.448-11.352,6.549-15.419c-0.267-0.225-0.626-0.302-0.937-0.08c-2.316,1.654-4.268,3.732-6.023,5.854
			C171.518,449.397,169.216,452.229,169.582,454.495z"/>
		<path style="fill:#FFFFFF;" d="M114.187,527.468c3.065,0.499,6.274-1.302,8.188-3.337c3.167-2.095,5.672-5.102,7.196-8.227
			c1.355-2.754,1.022-6.185-3.231-4.917c-2.807,0.838-5.46,2.809-7.749,4.434c-2.691,1.917-5.614,4.305-6.932,7.207
			C110.854,524.409,111.885,527.09,114.187,527.468z"/>
		<path style="fill:#FFFFFF;" d="M95.218,467.55c3.614,1.257,7.038-2.07,9.175-4.257c4.656-2.681,8.759-7.061,7.097-11.722
			c-0.937-2.603-4.016-2.053-6.932-0.755c-4.389,1.254-8.591,3.627-11.238,6.896C91.21,460.31,91.202,466.158,95.218,467.55z"/>
	</g>
	<g style="clip-path:url(#SVGID_00000119837356655936127440000003005731735904928652_);">
		<path style="fill:#FFFFFF;" d="M709.656,439.435c3.505,1.427,7.262-0.167,7.938-3.535c0.324-1.635,0.236-3.284,0.035-4.926
			c0.497-2.789,0.332-5.672-0.496-8.483c-0.051-0.153-0.201-0.242-0.375-0.218c-3.34,0.487-6.26,5.679-7.475,8
			C708.023,432.669,705.757,437.852,709.656,439.435z M711.621,427.78c1.188-1.718,2.653-3.617,4.575-4.732
			c0.332-0.19,0.583,0.636,0.765,1.751c-1.231-0.966-1.331,1.521-1.209,2.274c0.235,1.453,0.776,3.497,0.949,5.505
			c-0.555,1.802-1.396,3.529-2.347,5.201c-0.122,0.216,0.202,0.416,0.345,0.211c0.851-1.211,1.52-2.48,2.031-3.78
			c-0.079,1.763-0.62,3.353-2.195,4.258c-2.922,1.685-6.339-0.284-6.246-3.15C708.375,432.673,710.117,429.972,711.621,427.78z"/>
		<path style="fill:#FFFFFF;" d="M698.892,466.724c4.899-0.345,7.568-3.851,9.37-7.654c0.193-0.406-0.462-0.617-0.729-0.319
			c-2.426,2.699-3.526,6.03-7.714,6.95c-1.209,0.263,0.748-9.013,1.035-9.759c0.721-1.904,1.966-3.552,3.512-4.991
			c0.692-0.63,5.384-3.988,5.974-1.848c1.418,5.089-1.806,10.808-3.986,15.373c-0.137,0.291,0.373,0.433,0.526,0.153
			c2.776-5.421,5.533-10.91,3.899-16.944c-0.052-0.179-0.261-0.319-0.475-0.272c-9.803,2.195-12.018,10.877-11.911,18.826
			C698.402,466.466,698.596,466.744,698.892,466.724z"/>
		<path style="fill:#FFFFFF;" d="M683.361,447.477c1.093,2.006,3.332,3.689,5.944,2.962c4.252-1.177,6.196-6.944,7.139-10.228
			c0.174-0.578-0.784-0.879-0.999-0.296c-1.074,2.937-2.823,9.532-7.336,9.801c-2.941,0.172-4.408-3.33-4.85-5.339
			c-0.684-3.154,0.447-6.452,3.189-8.563c0.704-0.544,1.532-0.928,2.367-1.272c1.446-0.591,3.181-1.385,3.776,0.317
			c1.411,3.998,0.987,8.451-1.272,12.114c-0.251,0.402,0.416,0.8,0.662,0.399c2.791-4.46,2.778-9.539,0.879-14.267
			c-0.073-0.173-0.31-0.233-0.489-0.211C684.289,433.914,679.72,440.772,683.361,447.477z"/>
		<path style="fill:#FFFFFF;" d="M664.385,470.694c0.065,0.144,0.273,0.266,0.447,0.262c3.561-0.146,4.85-1.877,5.463-4.136
			c3.39-5.269,3.625-11.583-1.463-16.171c-0.172-0.159-0.474-0.197-0.667-0.034C661.313,456.322,660.773,463.267,664.385,470.694z
			 M665.164,455.004c1.575-2.476,3.065-4.264,5.166-1.382c2.353,3.215,1.942,7.155,0.439,10.602
			c0.093-0.756,0.187-1.523,0.302-2.278c0.079-0.457-0.706-0.557-0.863-0.142c-0.981,2.541-0.201,6.063-3.036,7.738
			c-3.772,2.236-4.226-6.819-4.161-8.633C663.083,458.778,664.004,456.823,665.164,455.004z"/>
		<path style="fill:#FFFFFF;" d="M693.106,422.584c0.273,0.172,0.604,0.066,0.799-0.139c1.949-2.107,3.035-4.677,3.584-7.344
			c2.597-6.401,4.052-16.559-3.792-15.515C682.88,401.022,686.78,418.533,693.106,422.584z M689.521,402.967
			c1.518-2.422,6.275-4.028,8.225-1.215c1.196,1.722,0.899,4.216,0.741,6.129c-0.115,1.292-0.323,2.758-0.661,4.238
			c-0.123-0.156-0.454-0.137-0.563,0.077c-1.106,2.107-1.41,4.347-2.267,6.479c-0.137,0.171-0.252,0.357-0.396,0.52
			c-0.092,0.107-0.05,0.208,0.029,0.279c-0.23,0.486-0.489,0.966-0.811,1.431c-1.023,1.458-3.03-2.479-3.521-3.416
			C688.09,413.24,686.846,407.248,689.521,402.967z"/>
		<path style="fill:#FFFFFF;" d="M659.42,436.144c0.045,0.176,0.23,0.339,0.447,0.332c0.768-0.227,1.151,0.067,1.136,0.873
			c0.022,0.311,0.381,0.625,0.741,0.432c3.376-1.797,5.059-4.244,5.664-7.094c1.467-3.696,1.475-7.613,1.294-11.6
			c-0.013-0.199-0.207-0.412-0.461-0.346C659.83,420.949,657.822,429.314,659.42,436.144z M664.271,421.323
			c-0.254,0.209,3.653-2.517,3.728-1.289c0.064,1.056,0.092,2.106,0.1,3.167c0.021,1.541-0.123,3.055-0.432,4.539
			c-0.013-1.016-0.1-2.056-0.288-3.132c-0.059-0.326-0.611-0.27-0.633,0.045c-0.295,4.241,0.28,8.166-3.685,11.253
			c-1.813,1.407-0.655,0.627-1.583-0.102c-0.856-0.673-1.274-0.233-1.548-1.651C659.046,429.608,660.463,424.527,664.271,421.323z"
			/>
		<path style="fill:#FFFFFF;" d="M646.281,425.635c0.093,0.292,0.487,0.55,0.833,0.357c0.375-0.216,0.714-0.441,1.022-0.667
			c-0.151,0.266,0.209,0.602,0.496,0.359c7.492-6.321,8.578-15.482,6.691-24.134c-0.047-0.218-0.372-0.378-0.596-0.256
			C645.243,406.458,643.251,416.694,646.281,425.635z M654.807,403.016c0.591,2.646,0.671,5.349,0.526,8.035
			c-0.238,4.639-2.101,8.977-5.384,12.481c0.749-1.021,1.232-2.205,1.636-3.629c0.102-0.353-0.454-0.64-0.686-0.296
			c-0.797,1.185-1.259,2.41-1.992,3.628c-2.244,3.718-3.151-4.978-3.124-4.523c-0.301-4.286,1.13-8.538,3.706-12.127
			C649.604,406.425,654.491,401.628,654.807,403.016z"/>
		<path style="fill:#FFFFFF;" d="M684.232,490.742c0.15,0.169,0.432,0.201,0.642,0.107c4.582-2.011,5.058-6.247,5.857-10.348
			c0.078-0.406-0.642-0.499-0.778-0.131c-0.806,2.098-3.194,12.901-6.777,7.331c-2.239-3.487-2.123-7.885-0.922-11.62
			c0.512-1.584,1.462-2.988,2.541-4.31c0.662-0.745,1.417-1.407,2.258-1.986c2.888-2.149,2.685,0.387,2.814,2.654
			c0.31,5.384-2.46,10.655-5.642,15.066c-0.215,0.298,0.295,0.602,0.519,0.308c4.447-6.017,6.993-12.649,5.346-19.852
			c-0.064-0.256-0.373-0.366-0.626-0.267C679.591,471.551,677.821,483.643,684.232,490.742z"/>
	</g>
	<g style="clip-path:url(#SVGID_00000119837356655936127440000003005731735904928652_);">
		<path style="fill:#FFFFFF;" d="M271.575-55.065c-1.229,0.452-0.577,2.157,0.649,1.702C282.356-57.106,296.322-1.1,298.008,5.24
			c7.965,30.137,10.464,62.315,2.199,93.272c-10.878,40.744-45.572,74.116-87.893,91.26c-42.626,17.277-88.671,12.142-126.899-7.796
			c-26.764-13.951-51.644-30.925-74.166-49.835c-22.507-18.902-43.69-40.962-55.227-67.103c-0.319-0.703-1.588-0.272-1.277,0.437
			c14.396,32.906,43.335,59.297,72.809,81.585c29.298,22.17,63.394,44.701,101.829,52.38c38.767,7.746,79.586-2.18,112.559-23.208
			c34.324-21.895,56.364-53.858,62.991-90.474c5.537-30.606,0.583-61.306-7.675-90.537c-3.631-12.802-7.606-25.653-13.25-37.801
			C282.404-46.026,277.914-57.407,271.575-55.065z"/>
		<path style="fill:#FFFFFF;" d="M263.374-12.244c-0.584,17.746-13.394,33.483-10.697,51.466
			c1.534,10.251,7.316,19.97,11.516,29.383c3.792,8.514,9.971,20.566,4.538,29.839c-7.95,13.568-35.651,6.692-47.854,6.16
			c-14.408-0.63-31.488,4.345-36.643,18.257c-5.671,15.321,2.504,31.188-5.021,46.341c-14.525,29.223-61.756,12.194-82.952,2.767
			c-22.901-10.173-39.814-24.959-57.603-40.989C15.542,110.156-11.226,85.75-18.945,55.87c-0.129-0.509-0.975-0.205-0.856,0.294
			c8.277,33.721,39.922,60.404,66.008,83.514c10.286,9.102,20.184,17.938,32.393,24.98c12.229,7.063,25.486,12.83,39.337,17.074
			c21.365,6.549,51.93,9.883,63.493-13.302c6.995-14.032-0.256-29.286,3.913-43.676c3.314-11.413,16.272-17.375,28.186-18.367
			c10.2-0.85,19.911,1.87,29.983,2.006c9.674,0.131,22.449-1.121,27.629-9.95c4.568-7.794,0.177-18.245-2.741-25.52
			c-4.27-10.691-10.218-20.835-13.12-31.988c-4.735-18.236,9.698-35.257,10.302-53.402C265.627-13.744,263.41-13.523,263.374-12.244
			z"/>
	</g>
	<path style="clip-path:url(#SVGID_00000119837356655936127440000003005731735904928652_);fill:#769194;" d="M77.53,450.506
		c13.399,2.462,27.452-6.288,39.41-18.407c-6.593-8.107-26.671,5.259-36.652,14.881c4.961-6.328,9.789-12.79,14.415-19.439
		c2.464-3.539,4.868-7.119,7.239-10.72c1.85-1.376,3.768-2.592,5.632-3.686c0.118-0.067,0.233-0.133,0.347-0.2
		c6.726,4.543,21.478-4.23,28.988-11.248c-7.177-5.565-20.729,0.809-28.663,9.215c-0.239,0.137-0.48,0.272-0.72,0.409
		c-1.02,0.592-2.014,1.236-2.983,1.924c3.566-3.64,7.181-7.213,10.768-10.82l1.158-0.482c10.749-5.811,28.138-14.166,34.634-27.58
		c-12.88,4.292-26.904,10.887-34.706,25.769c-3.315,3.191-6.618,6.393-9.875,9.662c5.893-9.147,11.657-18.382,17.646-27.469
		c6.076-9.21,12.26-18.536,19.302-26.896c6.393-2.711,11.437-5.244,17.317-10.771c2.935-2.341,17.705-18.531,12.828-20.298
		c-4.447-1.5-19.583,12.392-23.015,16.498c-3.257,3.709-7.168,9.744-9.52,15.044c-8.782,10.034-16.672,21.259-24.58,32.011
		c-0.518,0.706-1.029,1.409-1.543,2.12c0.231-0.593,0.457-1.188,0.681-1.781c1.384-3.656,2.822-7.344,4.097-11.032
		c0.801-1.081,1.547-2.208,2.254-3.368c-0.488,1.086-0.983,2.15-1.487,3.194l1.081-2.236c12.943-9.851,18.325-21.466,23.462-36.553
		c-6.195,3.726-10.537,9.493-14.066,15.951c2.036-5.65,3.65-11.871,2.179-14.577c-7.439,5.927-20.147,31.873-15.515,39.874
		c-0.075,0.186-0.151,0.369-0.228,0.556c-0.254,0.279-0.512,0.558-0.774,0.825l0.576-0.333c-0.908,2.288-1.722,4.61-2.58,6.881
		c-0.888,2.347-1.818,4.688-2.826,7.012c-0.005,0.014-0.013,0.03-0.02,0.044c-4.948,7.072-9.696,14.313-14.538,21.461
		c-3.235,4.777-6.53,9.506-9.884,14.188c0.158-0.565,0.313-1.128,0.462-1.694c0.653-2.455,1.337-4.896,2.063-7.346l0.225-0.156
		c3.371-4.973,6.926-10.247,8.997-16.021c1.578-4.005,5.17-17.554,2.359-19.287c-5.9,6.846-14.245,25.274-13.267,34.632
		c-0.771,2.071-1.386,4.175-2.011,6.261c-0.86,2.878-1.677,5.763-2.696,8.621c-0.082,0.232-0.166,0.459-0.258,0.687
		c-2.029,2.775-4.076,5.537-6.147,8.28c-0.188,0.251-0.378,0.5-0.567,0.749c0.024-0.173,0.047-0.347,0.07-0.518
		c5.352-8.506,14.529-35.63,7.853-39.35c-6.579,8.697-10.938,25.829-9.306,36.574c-0.325,1.622-0.573,3.252-0.878,4.84
		c-0.13,0.672-0.288,1.344-0.461,2.013c-10.18,13.19-20.922,25.778-31.94,38.073c-2.231,2.491-4.477,4.96-6.744,7.405
		c0.808-1.876,1.503-3.761,2.165-5.416c0.897-2.248,1.806-4.489,2.755-6.723C43.496,476.153,47.527,469.623,51,464
		c4.08-6.609,13.046-23.065,11.537-29.804c-4.478,3.87-10.384,13.919-13.29,19.594c-4.608,8.903-7.037,17.77-9.847,26.736
		c-1.096,2.147-2.044,4.352-3.006,6.543c-1.084,2.465-2.201,4.912-3.354,7.355c-0.044,0.091-0.089,0.184-0.138,0.276
		c6.96-15.4,8.062-32.397,5.264-45.679c-4.729,6.211-5.757,18.023-6.345,24.297c-0.793,8.843-0.82,17.363-1.604,25.785
		c-2.099,2.199-4.213,4.372-6.349,6.516c-6.1,6.118-12.226,12.177-18.172,18.514c-0.692,0.741-0.13,1.676,0.628,1.185
		c8.453-5.47,16.054-12.642,23.438-20.264c4.628-4.777,9.149-9.694,13.621-14.676c2.125,3.638,3.866,7.339,7.867,9.459
		c4.938,2.632,16.052,4.929,22.384,0.955c-6.635-6.974-18.093-13.253-29.42-11.346c0.839-0.936,1.678-1.876,2.513-2.815
		c3.528,1.074,11.316-0.527,14.227-1.549c5.869-1.771,15.631-6.948,19.71-13.557c-8.607,1.357-19.582,3.444-28.734,9.219
		c8.701-9.886,17.307-19.894,25.568-30.238L77.53,450.506z"/>
	<path style="clip-path:url(#SVGID_00000119837356655936127440000003005731735904928652_);fill:#FAF5F3;" d="M666.278,97.614
		c5.394,19.671-5.847,41.755-22.375,61.148c-12.941-8.789,4.402-40.454,17.471-56.586c-8.798,8.219-17.813,16.252-27.134,24.011
		c-4.965,4.13-9.991,8.178-15.059,12.182c-1.813,2.93-3.38,5.948-4.769,8.87c-0.091,0.187-0.171,0.37-0.251,0.543
		c7.637,9.448-3.542,32.578-13.042,44.683c-9.23-9.985-1.467-31.019,10.047-43.937c0.177-0.371,0.343-0.749,0.514-1.12
		c0.759-1.601,1.59-3.17,2.486-4.699c-4.967,5.789-9.827,11.635-14.747,17.453l-0.572,1.784
		c-7.28,16.784-17.494,43.792-36.674,55.211c4.748-19.756,12.776-41.528,33.962-55.082c4.333-5.355,8.686-10.695,13.141-15.974
		c-12.881,9.967-25.912,19.759-38.693,29.868c-12.956,10.244-26.068,20.668-37.631,32.249c-3.218,9.883-6.346,17.732-13.826,27.212
		c-3.113,4.684-25.357,28.797-28.617,21.752c-2.814-6.438,15.948-30.806,21.632-36.454c5.112-5.338,13.611-11.941,21.217-16.136
		c13.835-14.392,29.557-27.603,44.575-40.785c0.981-0.864,1.967-1.714,2.963-2.577c-0.858,0.422-1.715,0.834-2.57,1.245
		c-5.278,2.535-10.59,5.155-15.928,7.536c-1.508,1.332-3.095,2.587-4.733,3.79c1.555-0.868,3.085-1.746,4.573-2.622l-3.196,1.898
		c-13.022,20.573-29.65,30.092-51.49,39.704c4.756-9.725,12.803-16.941,21.977-23.039c-8.166,3.765-17.231,6.972-21.46,5.126
		c7.881-11.862,44.938-34.155,57.471-28.273c0.266-0.139,0.531-0.278,0.802-0.412c0.385-0.417,0.764-0.834,1.128-1.269l-0.423,0.906
		c3.298-1.65,6.659-3.161,9.926-4.727c3.389-1.635,6.759-3.317,10.093-5.121c0.025-0.012,0.046-0.027,0.071-0.037
		c9.908-8.293,20.092-16.311,30.133-24.449c6.708-5.446,13.33-10.964,19.887-16.573c-0.825,0.311-1.645,0.611-2.467,0.906
		c-3.579,1.293-7.134,2.628-10.689,4.026l-0.2,0.351c-6.989,5.668-14.4,11.654-22.74,15.485c-5.776,2.872-25.521,9.976-28.463,6.005
		c9.446-9.684,35.854-24.502,49.938-24.246c2.991-1.42,6.045-2.613,9.081-3.812c4.179-1.652,8.381-3.24,12.507-5.133
		c0.338-0.152,0.661-0.307,0.992-0.471c3.879-3.382,7.735-6.792,11.562-10.237c0.344-0.31,0.695-0.63,1.042-0.947
		c-0.254,0.063-0.504,0.115-0.76,0.173c-11.999,9.078-51.274,26.264-57.68,16.781c12.126-10.93,37.112-19.635,53.35-18.586
		c2.373-0.696,4.775-1.277,7.102-1.934c0.99-0.282,1.967-0.603,2.943-0.947c18.362-16.876,35.75-34.524,52.676-52.547
		c3.422-3.642,6.815-7.318,10.169-11.007c-2.688,1.442-5.414,2.723-7.796,3.925c-3.243,1.624-6.463,3.27-9.674,4.97
		c-7.902,5.877-17.133,12.731-25.06,18.633c-9.338,6.944-32.72,22.433-42.969,21.055c5.196-7.186,19.421-17.288,27.508-22.351
		c12.686-8.024,25.602-12.791,38.619-18.132c3.05-1.908,6.222-3.609,9.357-5.328c3.544-1.935,7.044-3.913,10.546-5.953
		c0.134-0.074,0.259-0.15,0.392-0.236c-22.07,12.365-47.283,16.196-67.447,13.738c8.655-7.853,26.14-10.908,35.408-12.598
		c13.095-2.321,25.806-3.458,38.264-5.718c3.005-3.409,5.981-6.842,8.891-10.303c8.342-9.89,16.594-19.806,25.273-29.492
		c1.019-1.123,2.486-0.409,1.852,0.781c-7.073,13.318-16.792,25.576-27.201,37.573c-6.527,7.519-13.274,14.897-20.134,22.206
		c5.705,2.698,11.447,4.821,15.121,10.514c4.567,7.025,9.42,23.307,4.31,33.259c-11.256-8.996-22.098-25.273-20.711-42.408
		c-1.292,1.37-2.579,2.733-3.875,4.103c2.054,5.122,0.676,16.955-0.475,21.421c-1.893,8.98-8.356,24.205-17.685,31.145
		c0.916-13.01,2.615-29.656,10.052-44.046c-13.626,14.251-27.437,28.373-41.81,42.027L666.278,97.614z"/>
</g>
</svg>
